<svg xmlns="http://www.w3.org/2000/svg" width="264" height="240">
  <style>
    .B{stroke-linecap:round}.C{stroke-linejoin:round}.D{stroke-miterlimit:10}
  </style>
  <defs>
    <clipPath id="A">
      <rect width="264" height="240" x="1112" y="768" fill="#f7f8f9" rx="8"/>
    </clipPath>
  </defs>
  <g fill="none" stroke="#c0ced5" clip-path="url(#A)" opacity=".3" transform="translate(-1112 -768)">
    <g class="C">
      <path d="M1097.6 757.6h-3.7v-3.7a4 4 0 1 0-7.8 0v3.7h-3.7a4 4 0 0 0 0 7.8h3.7v3.7a4 4 0 1 0 7.8 0v-3.7h3.7a4 4 0 0 0 0-7.8z"/>
      <circle cx="1143.1" cy="753.9" r="3.9"/>
      <circle cx="1143.1" cy="769.1" r="3.9"/>
      <circle cx="1150.8" cy="761.5" r="3.9"/>
      <circle cx="1135.5" cy="761.5" r="3.9"/>
      <path d="M1143.1 741.5H1090a20 20 0 1 0 18.5 27.6h16.2a20 20 0 1 0 18.4-27.6z"/>
      <path d="M1108.6 763.9h15.8m-15.8-5h15.8m-7.9-17.4v-3.6a3.7 3.7 0 0 1 3.7-3.7h19.2c2 0 3.7-1.7 3.7-3.8h0a3.7 3.7 0 0 0-3.7-3.7h-23m-16.8 190.2a6.5 6.5 0 0 1-6.5-6.5v-93.1a6.5 6.5 0 0 1 6.5-6.5h75.2v93h-5.2" class="B"/>
      <path d="M1099.6 903.9h72v13h-72a6.5 6.5 0 0 1-6.5-6.5 6.5 6.5 0 0 1 6.5-6.5z"/>
      <path d="M1171.6 916.9h3.2m-70.4-4.4h67.2m-43.4-4.2h43.4" class="B"/>
      <rect width="25.6" height="25.6" rx=".5" transform="rotate(-89.9 1020 -123.6)"/>
      <path d="M1152 874.6h-6.7v6.6h6.6zm-2.3 4.4h-2.2v-2.2h2.2zm6.9-4.4v7h6.9v-7zm4.6 4.7h-2.3V877h2.3zm-16 13.5h6.7v-6.7h-6.6zm2.3-4.5h2.2v2.3h-2.2z"/>
      <rect width="40" height="7.6" x="1116.7" y="840.5" rx="3.8"/>
      <rect width="56.2" height="7.6" x="1108.6" y="827.1" rx="3.8"/>
      <path d="M1099.6 903.9v-35m0-58.1V848m125.1 192a4.6 4.6 0 0 1-3.2-1.3 4.6 4.6 0 0 1-1.3-3.2v-53.7a4.6 4.6 0 0 1 1.3-3.2 4.6 4.6 0 0 1 3.2-1.3h53v53.6h-3.6" class="B"/>
      <path d="M1224.8 1031h50.7v9.1h-50.7a4.6 4.6 0 0 1-4.6-4.6 4.6 4.6 0 0 1 4.6-4.5z"/>
      <path d="M1275.5 1040.1h2.3m-44-4.8h41.7" class="B"/>
      <rect width="18.1" height="18.1" rx=".4" transform="rotate(-89.9 1141 -115.5)"/>
      <path d="M1261.7 1010.3h-4.7v4.7h4.6zm-1.6 3.2h-1.6v-1.6h1.6zm4.8-3.1v4.8h4.9v-4.8zm3.3 3.2h-1.7v-1.6h1.7zm-11.3 9.5h4.7v-4.7h-4.7zm1.6-3.1h1.6v1.6h-1.6z"/>
      <path d="M1224.8 1031v-24.7m0-29v18.3m5.8 5.2s10-2.2 10.2-9.6c.2-7.7-5.8-4.4-4.4 2.5s5.6 7.3 6.9 7.3c7.3 0 11.6-18.3 6.1-18.3-4.7 0-3.1 19.5 4.8 19.5 6.5 0 11.6-16.2 5.4-16.4-5-.2-3.9 18 11.6 13.2m61.7-128.7c-3 0-5.3-2.4-5.3-5.3v-42.8c0-2.9 2.4-5.2 5.3-5.2h80.8v42.7h-4.2" class="B"/>
      <path d="M1333 859.7h78.1v10.6H1333a5.3 5.3 0 0 1-5.3-5.3 5.3 5.3 0 0 1 5.3-5.3z"/>
      <path d="M1411.1 870.3h2.7m-77-3.6h74.3m-55-3.4h55" class="B"/>
      <rect width="17.8" height="17.8" rx=".4" transform="rotate(-89.9 1122.4 -269.2)"/>
      <path d="M1396.5 838.6h-4.6v4.5h4.6zm-1.5 3h-1.6v-1.5h1.6zm4.7-3v4.8h4.8v-4.8zm3.2 3.2h-1.6v-1.6h1.6zm-11 9.3h4.6v-4.6h-4.6zm1.5-3h1.6v1.5h-1.6z"/>
      <path d="M1332.9 817v11.9m0 11.2v19.6" class="B"/>
    </g>
    <path d="M1413.8 829.6c-8.1 0-8.1-5.3-16.2-5.3s-8.1 5.3-16.2 5.3-8-5.3-16.1-5.3-8.1 5.3-16.2 5.3-8.1-5.3-16.2-5.3" class="D"/>
    <g class="C">
      <path d="M1331.8 744a4.8 4.8 0 0 1 0-6.8l27.5-27.5a4.8 4.8 0 0 1 6.7 0l52 52-27.5 27.4-2.7-2.7" class="B"/>
      <path d="m1338.6 737.2 50.2 50.2-6.7 6.8-50.3-50.2a4.8 4.8 0 0 1 0-6.8 4.8 4.8 0 0 1 6.8 0z"/>
      <path d="m1382 794.2 1.8 1.7m-47.2-51.7 47.8 47.7m-33.2-37.5 35.3 35.3" class="B"/>
      <rect width="16.1" height="16.1" rx=".3" transform="rotate(-44.9 1621 -1284)"/>
      <path d="m1393 764.5-3-3-2.9 3 3 3zm-3 1-1-1 1-1 1 1zm5.1 1-3 3.1 3 3 3-3zm0 4.1-1-1 1-1 1 1zm-13.1-1 3 3 3-3-3-3zm3-1 1 1-1 1-1-1z"/>
      <path d="m1366 709.7-7.6 7.7m-7.2 7.2-12.6 12.6" class="B"/>
    </g>
    <path d="M1409.9 769.8c-5.2-5.2-1.8-8.6-7-13.8s-8.6-1.8-13.8-7-1.8-8.6-7-13.8-8.6-1.8-13.8-7-1.8-8.6-7-13.8" class="D"/>
    <g class="C">
      <path d="m1282.1 952.6-72.5.2a1.6 1.6 0 0 1-1.7-1.6l-.1-75.4a1.6 1.6 0 0 1 1.5-1.6l72.6-.2a1.6 1.6 0 0 1 1.7 1.6l.1 75.4c0 .9-.7 1.6-1.6 1.6z"/>
      <path d="M1246.6 892.4c-.5 0-.8.4-.8.9v3.5c0 .4-.4.8-.8.8h-3.5a.9.9 0 0 1-.9-.8v-8.7c0-.5-.4-.8-.8-.8h-3.5a.9.9 0 0 1-1-.8v-3.6c0-.4.4-.8.9-.8h8.7c.5 0 .9.4 1 .8v3.5c0 .5.3.9.8.9h3.5c.5 0 .8-.5.8-1V883c0-.5.4-.9.8-.9h3.5a.9.9 0 0 1 .9.8v14c0 .4-.3.8-.8.8h-3.5a.9.9 0 0 1-.9-.8v-3.5c0-.5-.4-.8-.8-.8zm-15.7 15.8a.9.9 0 0 0-.8.8v3.5c0 .5-.3.9-.8 1h-3.5a.9.9 0 0 1-.8-.9V904a.9.9 0 0 1 .8-1l8.8.1c.4 0 .8-.4.8-.9v-3.5a.9.9 0 0 1 .8-.8h3.5c.4 0 .8.3.8.8v8.7c0 .5-.3.9-.8.9zm24.5 5.1c.5 0 .8-.4.8-.9V909a.9.9 0 0 1 .8-.8h3.5c.5 0 .9.3.9.8v8.7c0 .5-.3.9-.8.9h-14a.9.9 0 0 1-.8-.8v-3.5a.9.9 0 0 1 .8-.8zm-3.5 10.5h3.5c.5 0 .9.3.9.8v8.7c0 .5-.4.9-.9.9h-3.5a.9.9 0 0 1-.8-.8v-8.8a.8.8 0 0 1 .7-.8.8.8 0 0 1 .1 0zm-10.5 5.2h3.5c.5 0 .9.4.9.8v3.5a.9.9 0 0 1-.8.9h-3.5a.9.9 0 0 1-.9-.8v-3.5a.9.9 0 0 1 .8-.9zm0 10.5h3.6c.4 0 .8.3.8.8v3.5c0 .4-.3.8-.8.8h-3.5a.9.9 0 0 1-.9-.8v-3.5a.9.9 0 0 1 .8-.8zm10.5 0h3.5c.5 0 .8.3.9.7v3.6c0 .4-.4.8-.8.8h-3.6a.9.9 0 0 1-.8-.8v-3.5a.9.9 0 0 1 .8-.9zm-21-26.2h3.5c.5 0 .9.4.9.8v3.5c0 .5-.3.9-.8 1h-3.5a.9.9 0 0 1-.9-.9v-3.5c0-.5.4-.8.8-.9zm14.8-14.8a.9.9 0 0 1 .8-.9h3.6c.4 0 .8.4.8.8v3.6a.9.9 0 0 0 .9.8h3.5c.5 0 .9.3.9.8v3.5a.9.9 0 0 1-.8.8h-8.8a.9.9 0 0 1-.8-.8zm-30.5 4.5h3.5c.5 0 .8.3.9.8v8.7c0 .5-.4.9-.9.9h-3.5a.9.9 0 0 1-.9-.8v-8.8a.8.8 0 0 1 .8-.8zm9.7 16.5c0-.5-.4-.8-.9-.8h-8.8a.9.9 0 0 0-.8.8v3.5a.9.9 0 0 0 1 .9h3.4c.5 0 .9.3.9.8v8.7c0 .5-.4.9-.9.9h-3.5a.9.9 0 0 0-.8.9v8.7a.9.9 0 0 0 .9.8h3.5c.4 0 .8-.4.8-.8v-3.6c0-.4.3-.8.8-.8h8.7c.5 0 .9.4.9.8v3.5a.9.9 0 0 0 .9.9h3.5c.5 0 .8-.5.8-1v-3.4a.9.9 0 0 1 .8-.9h3.5a.9.9 0 0 0 .8-.9V935c0-.5-.4-.8-.8-.8h-3.5a.9.9 0 0 1-1-.8v-3.5c0-.5.4-.9.9-.9h3.5a.9.9 0 0 0 .8-.9v-3.5a.9.9 0 0 1 .8-.8h3.5a.9.9 0 0 0 .9-1v-3.4a.9.9 0 0 0-1-.9h-8.7c-.5 0-.8.4-.8.9v3.5a.9.9 0 0 1-.8.8h-8.8a.9.9 0 0 1-.8-.8zm0 10.4a.9.9 0 0 1 .8-.8h3.5c.5 0 .9.3.9.8v3.5c0 .5-.4.8-.8.9h-3.5a.9.9 0 0 1-.9-.8zm37.4-27h3.5c.5 0 .8.3.9.8v3.5a.9.9 0 0 1-.8.8h-3.5a.9.9 0 0 1-.9-.8v-3.5a.8.8 0 0 1 .8-.8zm-21 5.3h3.6c.4 0 .8.3.8.8v3.5c0 .4-.3.8-.8.8h-3.5a.9.9 0 0 1-.8-.8V909c0-.5.3-1 .8-.8zm31.4-5.4h3.5c.5 0 .9.4.9.8v3.6a.9.9 0 0 1-.8.8h-3.5a.9.9 0 0 1-.9-.8v-3.5a.8.8 0 0 1 .7-.9.7.7 0 0 1 .1 0zm-6 11.4c0-.5.3-.9.8-.9h8.7c.5 0 .9.4.9.9v3.5a.9.9 0 0 1-.8.8h-3.5a.9.9 0 0 0-.8 1v3.4c0 .5-.4.9-.8.9h-8.8a.9.9 0 0 1-.8-.8v-3.6a.9.9 0 0 1 .7-.8h3.6c.4 0 .8-.4.8-.9zm-5.3-17.4a.9.9 0 0 0 .9.8h14a.9.9 0 0 0 .7-1v-13.9a.9.9 0 0 0-.9-.8h-14c-.4 0-.8.5-.8 1zm5.3-8.8c0-.5.4-.9.8-.9h3.5c.5 0 .9.4.9.8v3.5c0 .5-.4.9-.8.9h-3.5a.9.9 0 0 1-.9-.8zm-51.5-6a.9.9 0 0 0-.8.9v14a.9.9 0 0 0 .9.7h14c.4 0 .7-.4.7-.9v-14a.9.9 0 0 0-.9-.7zm4.4 6a.9.9 0 0 1 .8-.8h3.5c.5 0 .8.4.9.8v3.5c0 .5-.4.9-.8.9h-3.5a.9.9 0 0 1-.9-.8zm57.6 41.8a.9.9 0 0 0-.9-.8h-14c-.4 0-.7.4-.7.9v14a.9.9 0 0 0 .9.8h14a.9.9 0 0 0 .7-1zm-5.2 8.8a.9.9 0 0 1-.8.9h-3.5a.9.9 0 0 1-1-.8v-3.5c0-.5.4-.9.9-.9h3.5c.5 0 .8.3.9.8z"/>
      <rect width="72.7" height="103.7" rx="6.4" transform="rotate(-45 1524.3 -1044)"/>
      <rect width="26.6" height="26.6" rx=".6" transform="rotate(-44.9 1542.4 -1087.2)"/>
      <path d="m1227.1 766.6-4.9 5 4.9 4.8 4.9-4.8zm1.6 5-1.6 1.6-1.7-1.7 1.7-1.6zm1.8-8.3 5 5 5.2-5-5-5zm6.8 0-1.7 1.7-1.7-1.7 1.7-1.7zm-1.8 21.6 5-4.9-5-5-5 5zm-1.6-4.9 1.6-1.6 1.6 1.6-1.6 1.7z"/>
      <path d="m1191.8 772 44.1-44.2 63.2 63.2-44 44.2z"/>
      <path d="m1276.8 819.6 6.8-6.8m-33.4 17.6s-7.8-15.2 3.1-29.5c12.2-15.9 24.8-29 5-50.8m-3.3 85s-5.2-8.2 9.2-26.4 21-24.3 18.7-34" class="B"/>
      <rect width="33.2" height="7.6" rx="3.8" transform="rotate(-45 1735.4 -862.4)"/>
      <rect width="33.2" height="7.6" rx="3.8" transform="rotate(-45 1775.2 -879)"/>
      <rect width="33.2" height="7.6" rx="3.8" transform="rotate(-45 1755.3 -870.7)"/>
      <rect width="98.9" height="67.2" rx="12.2" transform="rotate(-45 1746 -791.6)"/>
      <rect width="28.3" height="28.3" rx=".6" transform="rotate(-44.9 1765 -823.8)"/>
      <path d="m1106.8 1000.2-5.2 5.2 5.1 5.2 5.3-5.2zm1.7 5.2-1.7 1.7-1.8-1.7 1.8-1.8zm2-8.8 5.3 5.4 5.4-5.4-5.3-5.4zm7.1 0-1.8 1.8-1.8-1.8 1.8-1.8zm-1.9 23 5.3-5.2-5.2-5.2-5.3 5.2zm-1.7-5.2 1.7-1.7 1.8 1.7-1.8 1.8z"/>
      <path d="M1313.2 1001v-94.7h68.8v109.9" class="B"/>
      <path d="M1372.1 1016.2h-68.8l9.9-15.2h68.8z"/>
      <path d="M1372.9 1016.2h19l-9.9-15.2" class="B"/>
      <rect width="24.2" height="24.2" rx=".5" transform="rotate(-89.9 1173.6 -180)"/>
      <path d="M1361.2 973.1h-6.3v6.3h6.3zm-2.1 4.2h-2.1v-2h2zm-4.3 13h6.4V984h-6.4zm2.1-4.2h2.1v2.1h-2zm8.6-13v6.6h6.5v-6.5zm4.4 4.4h-2.2v-2.1h2.2z"/>
    </g>
    <path d="M1317.8 933.2s24.4-11.6 24.1-7-22.6 18.5-13.6 20c5.4.8 26.1-21.7 36.3-21.2 9 .3-28.2 25.6-18.4 25.4 7.4-.1 26-14.8 28.1-9.9.8 1.9-9 9-4 12.7" class="B D"/>
  </g>
</svg>
